<svg width="139" height="18" viewBox="0 0 139 18" fill="none" xmlns="http://www.w3.org/2000/svg">
<path d="M7.16473 0.416491H1.91895C1.1985 0.416491 0.65816 0.979343 0.65816 1.67728V15.8161C0.65816 16.5141 1.22101 17.0769 1.94146 17.0769H7.16473C11.8251 17.0769 15.5625 13.3846 15.5625 8.7467C15.5625 4.1088 11.8026 0.416491 7.16473 0.416491ZM7.16473 14.6004H3.13471V2.89304H7.16473C10.4518 2.89304 13.0859 5.48216 13.0859 8.7467C13.0634 12.0112 10.4743 14.6004 7.16473 14.6004ZM34.7661 17.0769L27.9443 0.95683C27.7417 0.461519 27.3139 0.168837 26.7961 0.168837C26.2783 0.168837 25.8055 0.461519 25.6029 0.95683L18.7136 17.0769H21.4828L26.7736 4.73919L31.9969 17.0769H34.7661ZM45.9831 17.3246C50.3283 17.3246 53.6154 15.3433 53.6154 12.2814C53.6154 8.2739 49.6079 7.68854 46.1857 7.35083C43.8893 7.10317 41.4578 6.94557 41.4578 5.09942C41.4578 3.29829 43.394 2.5103 46.2983 2.5103C48.2345 2.5103 50.2158 2.93807 51.9944 3.68103L52.9625 1.45214C51.0038 0.619119 48.6173 0.123808 46.2983 0.123808C42.0882 0.123808 38.9362 2.03751 38.9362 5.09942C38.9362 8.97184 42.9212 9.28704 46.1407 9.64726C48.7749 9.91743 51.0713 10.2326 51.0713 12.2814C51.0713 13.8124 49.2251 14.8255 45.9831 14.8255C43.7317 14.8255 41.6154 14.3302 39.6342 13.3621L38.5985 15.591C40.8724 16.7392 43.349 17.3246 45.9831 17.3246ZM71.8415 0.416491V7.50842H62.4081V0.416491H59.9316V17.0769H62.4081V9.98497H71.8415V17.0769H74.3181V0.416491H71.8415ZM88.5068 17.302C93.2348 17.302 97.0397 13.4521 97.0397 8.65664C97.0397 3.81612 93.1447 0.101295 88.5068 0.101295C83.7789 0.101295 79.9515 3.86114 79.9515 8.65664C79.9515 13.4296 83.7789 17.302 88.5068 17.302ZM88.5068 14.8705C85.1522 14.8705 82.428 12.0563 82.428 8.65664C82.4055 5.2345 85.1522 2.53281 88.5068 2.53281C91.8389 2.53281 94.5856 5.2345 94.5631 8.65664C94.5631 12.0788 91.8614 14.8705 88.5068 14.8705ZM117.207 0.146323C116.802 0.146323 116.442 0.326435 116.217 0.619119L110.34 9.01687L104.487 0.619119C104.239 0.326435 103.901 0.146323 103.496 0.146323C102.776 0.146323 102.213 0.709175 102.213 1.40711V17.0769H104.689V4.82925L110.34 13.0469L115.991 4.85176V17.0769H118.468V1.40711C118.468 0.709175 117.905 0.146323 117.207 0.146323ZM138.484 2.89304V0.416491H127.002C126.282 0.416491 125.674 1.00186 125.674 1.72231V15.7486C125.674 16.469 126.282 17.0769 127.002 17.0769H138.484V14.6004H128.15V9.98497H137.809V7.50842H128.15V2.89304H138.484Z" fill="url(#paint0_linear_7_2)"/>
<defs>
<linearGradient id="paint0_linear_7_2" x1="-2.94409" y1="4.71596" x2="150.933" y2="4.71596" gradientUnits="userSpaceOnUse">
<stop stop-color="#2E51BA"/>
<stop offset="0.436141" stop-color="#2E51BA"/>
<stop offset="0.527723" stop-color="#4FC6E7"/>
<stop offset="1" stop-color="#4FC6E7"/>
</linearGradient>
</defs>
</svg>
